<svg width="24" height="24" viewBox="0 0 24 24" fill="none" xmlns="http://www.w3.org/2000/svg">
<path d="M13.5655 10.0556C14.2904 10.0556 14.878 10.6214 14.878 11.3194V14.7492C14.878 16.5446 13.3666 18 11.5022 18C9.63784 18 8.12645 16.5446 8.12645 14.7492V11.3194C8.12645 10.6214 8.71407 10.0556 9.43895 10.0556H13.5655ZM13.5655 11.1389H9.43895C9.33539 11.1389 9.25145 11.2197 9.25145 11.3194V14.7492C9.25145 15.9463 10.2592 16.9167 11.5022 16.9167C12.7453 16.9167 13.753 15.9463 13.753 14.7492V11.3194C13.753 11.2197 13.6691 11.1389 13.5655 11.1389ZM5.3125 10.0556L7.84846 10.0549C7.59093 10.3549 7.42318 10.729 7.38484 11.139L5.3125 11.1389C5.20895 11.1389 5.125 11.2197 5.125 11.3194V13.6658C5.125 14.6634 5.96488 15.4722 7.00093 15.4722C7.15092 15.4722 7.2968 15.4553 7.43662 15.4232C7.50015 15.7872 7.61617 16.1343 7.77615 16.4573C7.52933 16.5216 7.26924 16.5556 7.00093 16.5556C5.34356 16.5556 4 15.2618 4 13.6658V11.3194C4 10.6214 4.58763 10.0556 5.3125 10.0556ZM15.156 10.0549L17.6875 10.0556C18.4124 10.0556 19 10.6214 19 11.3194V13.6667C19 15.2622 17.6569 16.5556 16 16.5556C15.7327 16.5556 15.4735 16.5219 15.2269 16.4587C15.388 16.135 15.5041 15.7879 15.5688 15.4239C15.7069 15.4556 15.8514 15.4722 16 15.4722C17.0355 15.4722 17.875 14.6638 17.875 13.6667V11.3194C17.875 11.2197 17.7911 11.1389 17.6875 11.1389L15.6196 11.139C15.5813 10.729 15.4135 10.3549 15.156 10.0549ZM11.5 5C12.7426 5 13.75 5.97005 13.75 7.16667C13.75 8.36328 12.7426 9.33333 11.5 9.33333C10.2574 9.33333 9.25 8.36328 9.25 7.16667C9.25 5.97005 10.2574 5 11.5 5ZM16.375 5.72222C17.4105 5.72222 18.25 6.5306 18.25 7.52778C18.25 8.52496 17.4105 9.33333 16.375 9.33333C15.3395 9.33333 14.5 8.52496 14.5 7.52778C14.5 6.5306 15.3395 5.72222 16.375 5.72222ZM6.625 5.72222C7.66053 5.72222 8.5 6.5306 8.5 7.52778C8.5 8.52496 7.66053 9.33333 6.625 9.33333C5.58947 9.33333 4.75 8.52496 4.75 7.52778C4.75 6.5306 5.58947 5.72222 6.625 5.72222ZM11.5 6.08333C10.8787 6.08333 10.375 6.56836 10.375 7.16667C10.375 7.76498 10.8787 8.25 11.5 8.25C12.1213 8.25 12.625 7.76498 12.625 7.16667C12.625 6.56836 12.1213 6.08333 11.5 6.08333ZM16.375 6.80556C15.9608 6.80556 15.625 7.12891 15.625 7.52778C15.625 7.92665 15.9608 8.25 16.375 8.25C16.7892 8.25 17.125 7.92665 17.125 7.52778C17.125 7.12891 16.7892 6.80556 16.375 6.80556ZM6.625 6.80556C6.21079 6.80556 5.875 7.12891 5.875 7.52778C5.875 7.92665 6.21079 8.25 6.625 8.25C7.03921 8.25 7.375 7.92665 7.375 7.52778C7.375 7.12891 7.03921 6.80556 6.625 6.80556Z" fill="#0F6CBD"/>
</svg>
