<svg width="24" height="24" viewBox="0 0 24 24" fill="none" xmlns="http://www.w3.org/2000/svg">
<path d="M6 10.3985C6 10.0846 6.14739 9.78889 6.39804 9.59994L11.898 5.45379C12.2544 5.18515 12.7456 5.18515 13.102 5.45379L18.602 9.59994C18.8526 9.78889 19 10.0846 19 10.3985V17.6C19 17.9713 18.8478 18.3274 18.5769 18.5899C18.306 18.8525 17.9386 19 17.5556 19H7.44444C7.06135 19 6.69395 18.8525 6.42307 18.5899C6.15218 18.3274 6 17.9713 6 17.6V10.3985Z" stroke="#242424" stroke-width="1.3" stroke-linecap="round" stroke-linejoin="round"/>
<path d="M11 19V13C11 12.4477 11.4477 12 12 12H13C13.5523 12 14 12.4477 14 13V19" stroke="#242424" stroke-width="1.3" stroke-linecap="round" stroke-linejoin="round"/>
</svg>
