<svg width="24" height="24" viewBox="0 0 24 24" fill="none" xmlns="http://www.w3.org/2000/svg">
<path d="M9.01784 4.35024L9.85677 4.08767C10.8075 3.79012 11.8233 4.27099 12.2304 5.21135L12.8786 6.70846C13.2256 7.50999 13.0427 8.45198 12.4237 9.05132L11.3495 10.0914C11.3181 10.1218 11.2983 10.1629 11.2935 10.2072C11.2616 10.5036 11.4551 11.0809 11.901 11.8828C12.2253 12.4659 12.5188 12.8749 12.7686 13.1049C12.9426 13.2651 13.0384 13.2998 13.0792 13.2872L14.5244 12.8284C15.3335 12.5716 16.2104 12.8779 16.7055 13.5903L17.6262 14.9152C18.2057 15.7491 18.1015 16.8996 17.3824 17.6067L16.7452 18.2332C16.0577 18.9093 15.0789 19.1612 14.1668 18.8969C12.187 18.3231 10.4118 16.5883 8.82178 13.7287C7.22951 10.8652 6.6708 8.39866 7.18584 6.32974C7.42154 5.38291 8.11607 4.63247 9.01784 4.35024ZM9.32905 5.42223C8.78798 5.59157 8.37127 6.04183 8.22985 6.60993C7.79662 8.35022 8.29182 10.5364 9.75563 13.1689C11.2175 15.7979 12.7911 17.3357 14.4567 17.8185C15.004 17.9771 15.5912 17.8259 16.0038 17.4203L16.6409 16.7937C16.9678 16.4723 17.0152 15.9494 16.7518 15.5703L15.8311 14.2454C15.606 13.9216 15.2074 13.7824 14.8396 13.8991L13.3909 14.359C12.55 14.6193 11.7868 13.9166 10.9672 12.4426C10.4149 11.4493 10.1574 10.6815 10.2218 10.0829C10.2552 9.77282 10.3943 9.48537 10.6141 9.27258L11.6883 8.23247C11.9697 7.96004 12.0528 7.53187 11.8951 7.16754L11.2469 5.67043C11.0618 5.24299 10.6001 5.02441 10.168 5.15966L9.32905 5.42223Z" fill="#242424"/>
</svg>
