<svg width="20" height="20" viewBox="0 0 20 20" fill="none" xmlns="http://www.w3.org/2000/svg">
<path d="M18 7H15.5C14.673 7 14 6.327 14 5.5V2H6V18H18V7Z" fill="white"/>
<path d="M18 6.00003V5.70703L15 2.70703V5.50003C15 5.77503 15.225 6.00003 15.5 6.00003H18Z" fill="white"/>
<path opacity="0.67" d="M14.293 1C14.5582 1.00006 14.8125 1.10543 15 1.29297L18.707 5C18.8946 5.18749 18.9999 5.44184 19 5.70703V18C19 18.5523 18.5523 19 18 19H6C5.44772 19 5 18.5523 5 18V2C5 1.44772 5.44772 1 6 1H14.293ZM6.2002 2C6.0902 2 6 2.0902 6 2.2002V17.7998C6 17.9103 6.08974 18 6.2002 18H17.7998C17.9103 18 18 17.9103 18 17.7998V7H15.5C14.6716 7 14 6.32843 14 5.5V2H6.2002ZM15 5.5C15.0006 5.77591 15.2241 5.99945 15.5 6H18V5.70703L15 2.70703V5.5Z" fill="#605E5C"/>
<path d="M16.5 12H12V13H16.5C16.7761 13 17 12.7761 17 12.5C17 12.2239 16.7761 12 16.5 12Z" fill="#185ABD"/>
<path d="M16.5 10H12V11H16.5C16.7761 11 17 10.7761 17 10.5C17 10.2239 16.7761 10 16.5 10Z" fill="#2B7CD3"/>
<path d="M16.5 8H12V9H16.5C16.7761 9 17 8.77614 17 8.5C17 8.22386 16.7761 8 16.5 8Z" fill="#41A5EE"/>
<path d="M2 16H10C10.5523 16 11 15.5523 11 15V7C11 6.44772 10.5523 6 10 6H2C1.44772 6 1 6.44772 1 7V15C1 15.5523 1.44772 16 2 16Z" fill="#185ABD"/>
<path d="M4 11.9863L4 11.0001L4 10.0536L4 9L8 9.00013L8 9.80009L5.15969 9.80009L5.15969 10.6L8 10.6L8 11.4L5.15969 11.4L5.15969 12.2L8 12.2L8 13L4 12.9999L4 11.9863Z" fill="white"/>
</svg>
